<svg xmlns="http://www.w3.org/2000/svg" xmlns:v="https://svgstorm.com"
viewBox = "0 0 512 512"
width="512"
height="512">
<g fill="None" fill-opacity="0.0" stroke="#000000" stroke-opacity="0.00" stroke-width="0.3"><path d="
M 0.00 512.00 
L 512.00 512.00
L 512.00 0.00
L 0.00 0.00
L 0.00 512.00
M 478.00 50.00 
C 478.00 170.33 478.00 290.67 478.00 411.00
C 478.12 449.08 435.11 457.95 404.00 453.00
C 392.81 464.90 382.09 477.70 370.75 489.75 C 362.04 507.68 337.95 507.86 329.08 489.92 C 318.08 477.23 305.68 465.24 296.00 452.00
C 266.83 454.32 236.59 452.35 207.00 453.00
C 206.50 453.00 205.16 453.23 205.00 453.00
C 202.34 469.46 212.98 496.06 192.97 502.97 C 173.19 504.84 151.62 504.36 131.78 503.22 C 111.06 496.34 121.51 469.63 119.00 453.00
C 118.75 453.25 118.00 453.00 118.00 453.00
C 103.67 453.00 89.33 453.00 75.00 453.00
C 53.59 452.21 33.36 432.99 34.00 411.00
C 34.00 299.67 34.00 188.33 34.00 77.00
C 34.00 68.00 34.00 59.00 34.00 50.00
C 33.10 17.52 68.32 2.58 97.00 8.00 C 202.67 8.00 308.33 8.00 414.00 8.00 C 442.86 2.62 478.89 17.00 478.00 50.00 Z"/>
</g>
<g fill="None" fill-opacity="0.0" stroke="#434377" stroke-opacity="0.99" stroke-width="0.3"><path d="
M 34.00 50.00 
C 36.31 58.09 34.35 68.16 35.00 77.00
C 182.33 77.00 329.67 77.00 477.00 77.00
C 477.66 68.17 475.67 58.01 478.00 50.00
C 478.89 17.00 442.86 2.62 414.00 8.00 C 308.33 8.00 202.67 8.00 97.00 8.00 C 68.32 2.58 33.10 17.52 34.00 50.00
M 136.00 38.00 
C 136.15 38.45 136.00 39.50 136.00 40.00
C 137.75 40.83 136.66 43.44 137.00 45.00
C 137.43 48.78 133.27 51.58 130.00 52.00
C 125.83 51.36 120.34 53.29 117.00 51.00
C 116.50 51.00 116.00 51.00 116.00 51.00
C 111.50 50.40 108.04 43.48 111.00 40.00
C 111.05 39.51 111.00 39.00 111.00 39.00
C 114.25 30.10 131.22 30.43 136.00 38.00
M 180.00 40.00 
C 183.49 56.46 150.63 57.04 153.00 41.00
C 154.82 29.42 176.35 29.56 180.00 40.00
M 88.00 34.00 
C 102.52 42.75 86.61 56.55 74.33 50.67 C 59.01 42.82 76.22 28.59 88.00 34.00
M 396.00 34.00 
C 409.11 44.81 393.13 55.55 381.00 51.00 C 338.33 51.00 295.67 51.00 253.00 51.00 C 238.91 41.15 256.09 28.95 268.00 34.00 C 310.67 34.00 353.33 34.00 396.00 34.00 Z"/>
</g>
<g fill="None" fill-opacity="0.0" stroke="#594B4C" stroke-opacity="1.00" stroke-width="0.3"><path d="
M 111.00 39.00 
C 117.01 32.07 129.50 31.77 136.00 38.00
C 131.22 30.43 114.25 30.10 111.00 39.00 Z"/>
</g>
<g fill="None" fill-opacity="0.0" stroke="#2B5B66" stroke-opacity="1.00" stroke-width="0.3"><path d="
M 153.00 41.00 
C 153.02 40.91 154.00 41.00 154.00 41.00
C 155.46 31.03 173.52 31.30 178.00 39.00
C 178.21 39.27 178.74 39.88 179.00 40.00
C 179.41 40.19 180.00 40.00 180.00 40.00
C 176.35 29.56 154.82 29.42 153.00 41.00 Z"/>
</g>
<g fill="None" fill-opacity="0.0" stroke="#F15056" stroke-opacity="1.00" stroke-width="0.3"><path d="
M 88.00 34.00 
C 76.22 28.59 59.01 42.82 74.33 50.67 C 86.61 56.55 102.52 42.75 88.00 34.00 Z"/>
</g>
<g fill="None" fill-opacity="0.0" stroke="#EFB83A" stroke-opacity="1.00" stroke-width="0.3"><path d="
M 111.00 39.00 
C 111.00 39.00 111.05 39.51 111.00 40.00
C 110.06 44.58 112.31 48.85 116.00 51.00
C 116.00 51.00 116.50 51.00 117.00 51.00
C 121.33 51.00 125.67 51.00 130.00 51.00
C 132.44 49.81 135.87 48.13 136.00 45.00
C 136.00 43.33 136.00 41.67 136.00 40.00
C 136.00 39.50 136.15 38.45 136.00 38.00
C 129.50 31.77 117.01 32.07 111.00 39.00 Z"/>
</g>
<g fill="None" fill-opacity="0.0" stroke="#2EDC78" stroke-opacity="1.00" stroke-width="0.3"><path d="
M 154.00 41.00 
C 151.32 53.70 174.48 54.82 178.00 46.00
C 178.00 43.67 178.00 41.33 178.00 39.00
C 173.52 31.30 155.46 31.03 154.00 41.00 Z"/>
</g>
<g fill="None" fill-opacity="0.0" stroke="#2A2A4A" stroke-opacity="1.00" stroke-width="0.3"><path d="
M 396.00 34.00 
C 353.33 34.00 310.67 34.00 268.00 34.00 C 256.09 28.95 238.91 41.15 253.00 51.00 C 295.67 51.00 338.33 51.00 381.00 51.00 C 393.13 55.55 409.11 44.81 396.00 34.00 Z"/>
</g>
<g fill="None" fill-opacity="0.0" stroke="#4DB78E" stroke-opacity="1.00" stroke-width="0.3"><path d="
M 178.00 46.00 
C 179.87 44.86 178.61 41.87 179.00 40.00
C 178.74 39.88 178.21 39.27 178.00 39.00
C 178.00 41.33 178.00 43.67 178.00 46.00 Z"/>
</g>
<g fill="None" fill-opacity="0.0" stroke="#584944" stroke-opacity="1.00" stroke-width="0.3"><path d="
M 116.00 51.00 
C 112.31 48.85 110.06 44.58 111.00 40.00
C 108.04 43.48 111.50 50.40 116.00 51.00 Z"/>
</g>
<g fill="None" fill-opacity="0.0" stroke="#86715A" stroke-opacity="1.00" stroke-width="0.3"><path d="
M 136.00 45.00 
C 136.05 44.85 137.00 45.00 137.00 45.00
C 136.66 43.44 137.75 40.83 136.00 40.00
C 136.00 41.67 136.00 43.33 136.00 45.00 Z"/>
</g>
<g fill="None" fill-opacity="0.0" stroke="#286864" stroke-opacity="1.00" stroke-width="0.3"><path d="
M 178.00 46.00 
C 174.48 54.82 151.32 53.70 154.00 41.00
C 154.00 41.00 153.02 40.91 153.00 41.00
C 150.63 57.04 183.49 56.46 180.00 40.00
C 180.00 40.00 179.41 40.19 179.00 40.00
C 178.61 41.87 179.87 44.86 178.00 46.00 Z"/>
</g>
<g fill="None" fill-opacity="0.0" stroke="#5B4E4E" stroke-opacity="1.00" stroke-width="0.3"><path d="
M 130.00 51.00 
C 129.79 51.11 130.00 52.00 130.00 52.00
C 133.27 51.58 137.43 48.78 137.00 45.00
C 137.00 45.00 136.05 44.85 136.00 45.00
C 135.87 48.13 132.44 49.81 130.00 51.00 Z"/>
</g>
<g fill="None" fill-opacity="0.0" stroke="#43436D" stroke-opacity="0.87" stroke-width="0.3"><path d="
M 34.00 77.00 
C 34.00 76.96 35.00 77.00 35.00 77.00
C 34.35 68.16 36.31 58.09 34.00 50.00
C 34.00 59.00 34.00 68.00 34.00 77.00 Z"/>
</g>
<g fill="None" fill-opacity="0.0" stroke="#2D2B45" stroke-opacity="0.87" stroke-width="0.3"><path d="
M 477.00 77.00 
C 477.67 188.17 475.67 300.65 478.00 411.00
C 478.00 290.67 478.00 170.33 478.00 50.00
C 475.67 58.01 477.66 68.17 477.00 77.00 Z"/>
</g>
<g fill="None" fill-opacity="0.0" stroke="#705737" stroke-opacity="1.00" stroke-width="0.3"><path d="
M 130.00 52.00 
C 130.00 52.00 129.79 51.11 130.00 51.00
C 125.67 51.00 121.33 51.00 117.00 51.00
C 120.34 53.29 125.83 51.36 130.00 52.00 Z"/>
</g>
<g fill="None" fill-opacity="0.0" stroke="#2B2A43" stroke-opacity="0.87" stroke-width="0.3"><path d="
M 34.00 411.00 
C 36.33 300.57 34.33 188.18 35.00 77.00
C 35.00 77.00 34.00 76.96 34.00 77.00
C 34.00 188.33 34.00 299.67 34.00 411.00 Z"/>
</g>
<g fill="None" fill-opacity="0.0" stroke="#2A2A49" stroke-opacity="1.00" stroke-width="0.3"><path d="
M 34.00 411.00 
C 33.36 432.99 53.59 452.21 75.00 453.00
C 88.09 450.68 103.15 452.66 117.00 452.00
C 117.00 435.67 117.00 419.33 117.00 403.00
C 110.95 401.85 102.47 405.41 98.00 401.00
C 97.86 400.54 98.00 400.00 98.00 400.00
C 96.11 400.06 94.71 398.58 93.00 398.00
C 91.07 396.74 89.09 395.00 88.00 393.00
C 87.77 390.49 84.99 388.95 86.00 386.00
C 84.04 384.55 85.44 381.20 85.00 379.00
C 84.17 373.92 88.16 369.71 92.00 367.00
C 92.13 366.20 93.09 365.89 93.00 365.00
C 108.29 346.44 125.65 329.37 140.75 310.75 C 148.35 300.60 162.72 291.02 173.75 301.25 C 189.94 318.41 206.16 336.96 222.25 354.75 C 229.28 364.08 243.53 372.82 240.22 386.22 C 236.99 402.88 219.13 402.01 206.26 403.26 C 206.32 419.71 204.85 436.96 207.00 453.00
C 236.59 452.35 266.83 454.32 296.00 452.00
C 289.04 442.09 276.66 435.04 274.00 423.00
C 273.99 422.94 273.00 423.00 273.00 423.00
C 267.79 419.89 273.52 407.98 279.25 404.25 C 285.65 397.09 296.03 399.33 305.00 399.00
C 305.00 376.33 305.00 353.67 305.00 331.00 C 299.19 308.69 316.45 290.86 339.00 297.00 C 357.02 299.56 387.50 288.31 393.00 312.00
C 392.96 312.50 393.00 313.00 393.00 313.00
C 395.33 338.43 393.33 365.82 394.00 392.00 C 390.55 404.73 406.21 397.68 412.00 401.00
C 412.25 401.26 412.00 402.00 412.00 402.00
C 418.54 402.39 426.07 409.08 426.00 416.00
C 427.47 417.33 427.71 421.74 426.00 423.00
C 423.13 435.18 409.45 442.16 404.00 453.00
C 435.11 457.95 478.12 449.08 478.00 411.00
C 475.67 300.65 477.67 188.17 477.00 77.00
C 329.67 77.00 182.33 77.00 35.00 77.00
C 34.33 188.18 36.33 300.57 34.00 411.00
M 263.00 137.00 
C 280.64 137.21 294.03 156.41 289.22 173.22 C 285.61 191.75 265.34 199.06 248.00 196.00
C 247.33 207.83 249.33 220.99 247.00 232.00
C 241.13 248.61 223.81 231.39 230.00 219.00 C 230.00 204.33 230.00 189.67 230.00 175.00 C 232.60 162.98 223.68 142.92 237.00 137.00
C 244.59 135.35 255.48 135.32 263.00 137.00
M 360.00 137.00 
C 366.81 137.34 369.58 147.07 364.25 151.25 C 358.31 156.23 349.34 153.14 342.00 154.00
C 342.00 176.67 342.00 199.33 342.00 222.00
C 351.36 221.81 371.08 219.04 366.07 234.07 C 358.45 243.70 343.75 237.02 333.00 239.00 C 322.35 236.86 306.87 243.85 299.70 234.30 C 294.80 218.98 314.57 221.83 324.00 222.00
C 324.00 199.33 324.00 176.67 324.00 154.00
C 316.79 153.23 308.41 155.93 302.26 151.74 C 296.06 148.12 298.75 136.85 306.00 137.00
C 322.93 135.34 343.14 135.33 360.00 137.00
M 213.00 164.00 
C 214.66 185.26 214.67 209.81 213.00 231.00
C 213.53 242.36 195.19 240.60 196.01 229.99 C 195.99 218.66 196.01 207.33 196.00 196.00
C 187.67 196.00 179.33 196.00 171.00 196.00
C 171.00 207.33 171.00 218.67 171.00 230.00 C 171.79 240.59 153.50 242.37 154.00 231.00
C 152.34 210.07 152.33 185.86 154.00 165.00
C 152.52 128.87 212.99 128.05 213.00 164.00 Z"/>
</g>
<g fill="None" fill-opacity="0.0" stroke="#8A8A9A" stroke-opacity="1.00" stroke-width="0.3"><path d="
M 237.00 137.00 
C 245.67 137.00 254.33 137.00 263.00 137.00
C 255.48 135.32 244.59 135.35 237.00 137.00 Z"/>
</g>
<g fill="None" fill-opacity="0.0" stroke="#8E8B9B" stroke-opacity="1.00" stroke-width="0.3"><path d="
M 306.00 137.00 
C 324.00 137.00 342.00 137.00 360.00 137.00
C 343.14 135.33 322.93 135.34 306.00 137.00 Z"/>
</g>
<g fill="None" fill-opacity="0.0" stroke="#FBFBFC" stroke-opacity="1.00" stroke-width="0.3"><path d="
M 154.00 165.00 
C 154.00 187.00 154.00 209.00 154.00 231.00
C 153.50 242.37 171.79 240.59 171.00 230.00 C 171.00 218.67 171.00 207.33 171.00 196.00
C 179.33 196.00 187.67 196.00 196.00 196.00
C 196.01 207.33 195.99 218.66 196.01 229.99 C 195.19 240.60 213.53 242.36 213.00 231.00
C 213.00 208.67 213.00 186.33 213.00 164.00
C 212.99 128.05 152.52 128.87 154.00 165.00
M 196.00 179.00 
C 187.67 179.00 179.33 179.00 171.00 179.00
C 170.16 169.12 169.85 153.94 183.00 154.00 C 196.57 153.20 197.24 168.99 196.00 179.00 Z"/>
</g>
<g fill="None" fill-opacity="0.0" stroke="#FAFAFB" stroke-opacity="1.00" stroke-width="0.3"><path d="
M 247.00 232.00 
C 247.67 220.17 245.67 207.01 248.00 196.00
C 265.34 199.06 285.61 191.75 289.22 173.22 C 294.03 156.41 280.64 137.21 263.00 137.00
C 254.33 137.00 245.67 137.00 237.00 137.00
C 223.68 142.92 232.60 162.98 230.00 175.00 C 230.00 189.67 230.00 204.33 230.00 219.00 C 223.81 231.39 241.13 248.61 247.00 232.00
M 261.00 154.00 
C 269.36 153.49 275.99 164.54 271.69 171.69 C 267.75 181.06 256.38 178.87 248.00 179.00
C 245.72 173.25 247.63 165.51 247.00 159.00 C 244.64 150.52 256.93 152.48 261.00 154.00 Z"/>
</g>
<g fill="None" fill-opacity="0.0" stroke="#FBFBFC" stroke-opacity="1.00" stroke-width="0.3"><path d="
M 342.00 222.00 
C 340.34 200.40 340.33 175.53 342.00 154.00
C 349.34 153.14 358.31 156.23 364.25 151.25 C 369.58 147.07 366.81 137.34 360.00 137.00
C 342.00 137.00 324.00 137.00 306.00 137.00
C 298.75 136.85 296.06 148.12 302.26 151.74 C 308.41 155.93 316.79 153.23 324.00 154.00
C 324.00 176.67 324.00 199.33 324.00 222.00
C 314.57 221.83 294.80 218.98 299.70 234.30 C 306.87 243.85 322.35 236.86 333.00 239.00 C 343.75 237.02 358.45 243.70 366.07 234.07 C 371.08 219.04 351.36 221.81 342.00 222.00 Z"/>
</g>
<g fill="None" fill-opacity="0.0" stroke="#9797A4" stroke-opacity="1.00" stroke-width="0.3"><path d="
M 248.00 179.00 
C 248.00 170.67 248.00 162.33 248.00 154.00
C 252.33 154.00 256.67 154.00 261.00 154.00
C 256.93 152.48 244.64 150.52 247.00 159.00 C 247.63 165.51 245.72 173.25 248.00 179.00 Z"/>
</g>
<g fill="None" fill-opacity="0.0" stroke="#2B2A49" stroke-opacity="1.00" stroke-width="0.3"><path d="
M 196.00 179.00 
C 197.24 168.99 196.57 153.20 183.00 154.00 C 169.85 153.94 170.16 169.12 171.00 179.00
C 179.33 179.00 187.67 179.00 196.00 179.00 Z"/>
</g>
<g fill="None" fill-opacity="0.0" stroke="#2B2B49" stroke-opacity="1.00" stroke-width="0.3"><path d="
M 248.00 179.00 
C 256.38 178.87 267.75 181.06 271.69 171.69 C 275.99 164.54 269.36 153.49 261.00 154.00
C 256.67 154.00 252.33 154.00 248.00 154.00
C 248.00 162.33 248.00 170.67 248.00 179.00 Z"/>
</g>
<g fill="None" fill-opacity="0.0" stroke="#727181" stroke-opacity="1.00" stroke-width="0.3"><path d="
M 342.00 222.00 
C 342.00 199.33 342.00 176.67 342.00 154.00
C 340.33 175.53 340.34 200.40 342.00 222.00 Z"/>
</g>
<g fill="None" fill-opacity="0.0" stroke="#717080" stroke-opacity="1.00" stroke-width="0.3"><path d="
M 213.00 231.00 
C 214.67 209.81 214.66 185.26 213.00 164.00
C 213.00 186.33 213.00 208.67 213.00 231.00 Z"/>
</g>
<g fill="None" fill-opacity="0.0" stroke="#7D7D90" stroke-opacity="1.00" stroke-width="0.3"><path d="
M 154.00 231.00 
C 154.00 209.00 154.00 187.00 154.00 165.00
C 152.33 185.86 152.34 210.07 154.00 231.00 Z"/>
</g>
<g fill="None" fill-opacity="0.0" stroke="#8E8D9C" stroke-opacity="1.00" stroke-width="0.3"><path d="
M 247.00 232.00 
C 249.33 220.99 247.33 207.83 248.00 196.00
C 245.67 207.01 247.67 220.17 247.00 232.00 Z"/>
</g>
<g fill="None" fill-opacity="0.0" stroke="#15403E" stroke-opacity="1.00" stroke-width="0.3"><path d="
M 93.00 365.00 
C 96.45 362.95 98.58 359.00 102.00 357.00
C 103.57 354.72 105.67 352.43 108.00 351.00
C 111.39 344.47 118.65 340.50 122.00 334.00
C 123.57 331.72 125.67 329.43 128.00 328.00
C 128.20 327.60 128.00 327.00 128.00 327.00
C 130.21 324.04 133.02 321.10 136.00 319.00
C 138.05 315.55 142.00 313.42 144.00 310.00
C 146.54 306.70 149.69 303.44 153.00 301.00
C 158.99 297.52 167.34 298.26 173.00 302.00
C 174.93 303.26 176.91 305.00 178.00 307.00
C 181.50 312.04 186.09 316.28 190.00 321.00
C 195.54 325.18 199.87 330.69 204.00 336.00
C 204.81 338.04 207.27 338.97 208.00 341.00
C 210.96 343.21 213.90 346.02 216.00 349.00
C 216.22 352.54 220.74 353.93 222.00 357.00
C 224.28 358.57 226.57 360.67 228.00 363.00
C 231.75 368.11 237.96 372.30 238.00 379.00
C 239.47 380.33 239.71 384.74 238.00 386.00
C 238.54 388.68 237.08 390.78 236.00 393.00
C 234.74 394.93 233.00 396.91 231.00 398.00
C 223.35 402.60 213.78 400.55 205.00 401.00
C 205.00 418.00 205.00 435.00 205.00 452.00
C 205.00 452.50 205.00 453.00 205.00 453.00
C 205.16 453.23 206.50 453.00 207.00 453.00
C 204.85 436.96 206.32 419.71 206.26 403.26 C 219.13 402.01 236.99 402.88 240.22 386.22 C 243.53 372.82 229.28 364.08 222.25 354.75 C 206.16 336.96 189.94 318.41 173.75 301.25 C 162.72 291.02 148.35 300.60 140.75 310.75 C 125.65 329.37 108.29 346.44 93.00 365.00 Z"/>
</g>
<g fill="None" fill-opacity="0.0" stroke="#45223B" stroke-opacity="1.00" stroke-width="0.3"><path d="
M 273.00 423.00 
C 273.59 420.16 271.78 416.02 274.00 414.00
C 274.71 412.32 276.01 410.92 276.00 409.00
C 277.26 407.07 279.00 405.09 281.00 404.00
C 283.54 404.00 285.26 401.40 288.00 402.00
C 293.42 399.72 300.82 401.63 307.00 401.00
C 307.67 371.50 305.67 340.68 308.00 312.00
C 308.12 306.55 313.61 302.35 318.00 300.00
C 336.30 296.04 359.24 297.97 378.00 299.00
C 378.74 298.82 379.91 299.05 380.00 300.00
C 381.56 299.59 382.69 300.46 384.00 301.00
C 386.28 302.57 388.57 304.67 390.00 307.00
C 390.71 308.68 392.01 310.08 392.00 312.00
C 392.04 312.14 393.00 312.00 393.00 312.00
C 387.50 288.31 357.02 299.56 339.00 297.00 C 316.45 290.86 299.19 308.69 305.00 331.00 C 305.00 353.67 305.00 376.33 305.00 399.00
C 296.03 399.33 285.65 397.09 279.25 404.25 C 273.52 407.98 267.79 419.89 273.00 423.00 Z"/>
</g>
<g fill="None" fill-opacity="0.0" stroke="#812E3F" stroke-opacity="1.00" stroke-width="0.3"><path d="
M 318.00 300.00 
C 318.47 299.88 319.50 300.00 320.00 300.00
C 338.43 297.67 358.82 299.66 378.00 299.00
C 359.24 297.97 336.30 296.04 318.00 300.00 Z"/>
</g>
<g fill="None" fill-opacity="0.0" stroke="#26E472" stroke-opacity="1.00" stroke-width="0.3"><path d="
M 153.00 301.00 
C 150.46 304.30 147.31 307.56 144.00 310.00
C 142.00 313.42 138.05 315.55 136.00 319.00
C 133.79 321.96 130.98 324.90 128.00 327.00
C 128.00 327.00 128.20 327.60 128.00 328.00
C 126.43 330.28 124.33 332.57 122.00 334.00
C 118.65 340.50 111.39 344.47 108.00 351.00
C 106.43 353.28 104.33 355.57 102.00 357.00
C 101.70 358.25 100.17 358.71 100.00 360.00
C 98.43 362.28 96.33 364.57 94.00 366.00
C 92.43 368.28 90.33 370.57 88.00 372.00
C 88.00 374.54 85.40 376.26 86.00 379.00
C 86.00 381.33 86.00 383.67 86.00 386.00
C 84.99 388.95 87.77 390.49 88.00 393.00
C 89.93 394.26 91.91 396.00 93.00 398.00
C 94.71 398.58 96.11 400.06 98.00 400.00
C 104.56 401.99 112.04 400.58 119.00 401.00
C 120.66 416.93 120.67 436.14 119.00 452.00
C 119.00 452.50 119.00 453.00 119.00 453.00
C 121.51 469.63 111.06 496.34 131.78 503.22 C 151.62 504.36 173.19 504.84 192.97 502.97 C 212.98 496.06 202.34 469.46 205.00 453.00
C 205.00 453.00 205.00 452.50 205.00 452.00
C 203.34 436.07 203.33 416.86 205.00 401.00
C 213.78 400.55 223.35 402.60 231.00 398.00
C 232.26 396.07 234.00 394.09 236.00 393.00
C 237.08 390.78 238.54 388.68 238.00 386.00
C 238.00 383.67 238.00 381.33 238.00 379.00
C 237.96 372.30 231.75 368.11 228.00 363.00
C 225.72 361.43 223.43 359.33 222.00 357.00
C 220.74 353.93 216.22 352.54 216.00 349.00
C 213.04 346.79 210.10 343.98 208.00 341.00
C 207.27 338.97 204.81 338.04 204.00 336.00
C 198.60 331.75 194.78 325.88 190.00 321.00
C 186.09 316.28 181.50 312.04 178.00 307.00
C 176.07 305.74 174.09 304.00 173.00 302.00
C 167.34 298.26 158.99 297.52 153.00 301.00 Z"/>
</g>
<g fill="None" fill-opacity="0.0" stroke="#DA5B64" stroke-opacity="1.00" stroke-width="0.3"><path d="
M 320.00 300.00 
C 340.00 300.00 360.00 300.00 380.00 300.00
C 379.91 299.05 378.74 298.82 378.00 299.00
C 358.82 299.66 338.43 297.67 320.00 300.00 Z"/>
</g>
<g fill="None" fill-opacity="0.0" stroke="#FE4D4E" stroke-opacity="1.00" stroke-width="0.3"><path d="
M 308.00 312.00 
C 308.00 339.33 308.00 366.67 308.00 394.00 C 311.03 406.64 295.19 400.68 288.00 402.00
C 285.26 401.40 283.54 404.00 281.00 404.00
C 279.74 405.93 278.00 407.91 276.00 409.00
C 276.01 410.92 274.71 412.32 274.00 414.00
C 274.00 417.00 274.00 420.00 274.00 423.00
C 276.66 435.04 289.04 442.09 296.00 452.00
C 305.68 465.24 318.08 477.23 329.08 489.92 C 337.95 507.86 362.04 507.68 370.75 489.75 C 382.09 477.70 392.81 464.90 404.00 453.00
C 409.45 442.16 423.13 435.18 426.00 423.00
C 426.00 420.67 426.00 418.33 426.00 416.00
C 426.07 409.08 418.54 402.39 412.00 402.00
C 405.84 401.34 398.34 403.32 393.00 401.00
C 390.67 372.24 392.66 341.51 392.00 312.00
C 392.01 310.08 390.71 308.68 390.00 307.00
C 387.72 305.43 385.43 303.33 384.00 301.00
C 382.69 300.46 381.56 299.59 380.00 300.00
C 360.00 300.00 340.00 300.00 320.00 300.00
C 319.50 300.00 318.47 299.88 318.00 300.00
C 313.61 302.35 308.12 306.55 308.00 312.00 Z"/>
</g>
<g fill="None" fill-opacity="0.0" stroke="#39A573" stroke-opacity="1.00" stroke-width="0.3"><path d="
M 144.00 310.00 
C 147.31 307.56 150.46 304.30 153.00 301.00
C 149.69 303.44 146.54 306.70 144.00 310.00 Z"/>
</g>
<g fill="None" fill-opacity="0.0" stroke="#C35662" stroke-opacity="1.00" stroke-width="0.3"><path d="
M 390.00 307.00 
C 388.57 304.67 386.28 302.57 384.00 301.00
C 385.43 303.33 387.72 305.43 390.00 307.00 Z"/>
</g>
<g fill="None" fill-opacity="0.0" stroke="#166848" stroke-opacity="1.00" stroke-width="0.3"><path d="
M 178.00 307.00 
C 176.91 305.00 174.93 303.26 173.00 302.00
C 174.09 304.00 176.07 305.74 178.00 307.00 Z"/>
</g>
<g fill="None" fill-opacity="0.0" stroke="#B25362" stroke-opacity="1.00" stroke-width="0.3"><path d="
M 288.00 402.00 
C 295.19 400.68 311.03 406.64 308.00 394.00 C 308.00 366.67 308.00 339.33 308.00 312.00
C 305.67 340.68 307.67 371.50 307.00 401.00
C 300.82 401.63 293.42 399.72 288.00 402.00 Z"/>
</g>
<g fill="None" fill-opacity="0.0" stroke="#8D4053" stroke-opacity="1.00" stroke-width="0.3"><path d="
M 393.00 401.00 
C 393.26 401.25 394.00 401.00 394.00 401.00
C 391.67 372.17 393.66 342.25 393.00 313.00
C 393.00 313.00 392.96 312.50 393.00 312.00
C 393.00 312.00 392.04 312.14 392.00 312.00
C 392.66 341.51 390.67 372.24 393.00 401.00 Z"/>
</g>
<g fill="None" fill-opacity="0.0" stroke="#441F39" stroke-opacity="1.00" stroke-width="0.3"><path d="
M 394.00 401.00 
C 400.00 401.00 406.00 401.00 412.00 401.00
C 406.21 397.68 390.55 404.73 394.00 392.00 C 393.33 365.82 395.33 338.43 393.00 313.00
C 393.66 342.25 391.67 372.17 394.00 401.00 Z"/>
</g>
<g fill="None" fill-opacity="0.0" stroke="#135C44" stroke-opacity="1.00" stroke-width="0.3"><path d="
M 128.00 327.00 
C 130.98 324.90 133.79 321.96 136.00 319.00
C 133.02 321.10 130.21 324.04 128.00 327.00 Z"/>
</g>
<g fill="None" fill-opacity="0.0" stroke="#186549" stroke-opacity="1.00" stroke-width="0.3"><path d="
M 204.00 336.00 
C 199.87 330.69 195.54 325.18 190.00 321.00
C 194.78 325.88 198.60 331.75 204.00 336.00 Z"/>
</g>
<g fill="None" fill-opacity="0.0" stroke="#1A694C" stroke-opacity="1.00" stroke-width="0.3"><path d="
M 122.00 334.00 
C 124.33 332.57 126.43 330.28 128.00 328.00
C 125.67 329.43 123.57 331.72 122.00 334.00 Z"/>
</g>
<g fill="None" fill-opacity="0.0" stroke="#125B42" stroke-opacity="1.00" stroke-width="0.3"><path d="
M 216.00 349.00 
C 213.90 346.02 210.96 343.21 208.00 341.00
C 210.10 343.98 213.04 346.79 216.00 349.00 Z"/>
</g>
<g fill="None" fill-opacity="0.0" stroke="#3DAB77" stroke-opacity="1.00" stroke-width="0.3"><path d="
M 102.00 357.00 
C 104.33 355.57 106.43 353.28 108.00 351.00
C 105.67 352.43 103.57 354.72 102.00 357.00 Z"/>
</g>
<g fill="None" fill-opacity="0.0" stroke="#135D45" stroke-opacity="1.00" stroke-width="0.3"><path d="
M 93.00 365.00 
C 93.09 365.89 92.13 366.20 92.00 367.00
C 91.19 369.04 88.73 369.97 88.00 372.00
C 90.33 370.57 92.43 368.28 94.00 366.00
C 95.57 363.72 97.67 361.43 100.00 360.00
C 100.17 358.71 101.70 358.25 102.00 357.00
C 98.58 359.00 96.45 362.95 93.00 365.00 Z"/>
</g>
<g fill="None" fill-opacity="0.0" stroke="#29865E" stroke-opacity="1.00" stroke-width="0.3"><path d="
M 228.00 363.00 
C 226.57 360.67 224.28 358.57 222.00 357.00
C 223.43 359.33 225.72 361.43 228.00 363.00 Z"/>
</g>
<g fill="None" fill-opacity="0.0" stroke="#3CB277" stroke-opacity="1.00" stroke-width="0.3"><path d="
M 94.00 366.00 
C 96.33 364.57 98.43 362.28 100.00 360.00
C 97.67 361.43 95.57 363.72 94.00 366.00 Z"/>
</g>
<g fill="None" fill-opacity="0.0" stroke="#163D3F" stroke-opacity="1.00" stroke-width="0.3"><path d="
M 85.00 379.00 
C 85.02 378.91 86.00 379.00 86.00 379.00
C 85.40 376.26 88.00 374.54 88.00 372.00
C 88.73 369.97 91.19 369.04 92.00 367.00
C 88.16 369.71 84.17 373.92 85.00 379.00 Z"/>
</g>
<g fill="None" fill-opacity="0.0" stroke="#338668" stroke-opacity="1.00" stroke-width="0.3"><path d="
M 86.00 386.00 
C 86.00 383.67 86.00 381.33 86.00 379.00
C 86.00 379.00 85.02 378.91 85.00 379.00
C 85.44 381.20 84.04 384.55 86.00 386.00 Z"/>
</g>
<g fill="None" fill-opacity="0.0" stroke="#46AA7D" stroke-opacity="1.00" stroke-width="0.3"><path d="
M 238.00 386.00 
C 239.71 384.74 239.47 380.33 238.00 379.00
C 238.00 381.33 238.00 383.67 238.00 386.00 Z"/>
</g>
<g fill="None" fill-opacity="0.0" stroke="#176849" stroke-opacity="1.00" stroke-width="0.3"><path d="
M 93.00 398.00 
C 91.91 396.00 89.93 394.26 88.00 393.00
C 89.09 395.00 91.07 396.74 93.00 398.00 Z"/>
</g>
<g fill="None" fill-opacity="0.0" stroke="#2A8860" stroke-opacity="1.00" stroke-width="0.3"><path d="
M 231.00 398.00 
C 233.00 396.91 234.74 394.93 236.00 393.00
C 234.00 394.09 232.26 396.07 231.00 398.00 Z"/>
</g>
<g fill="None" fill-opacity="0.0" stroke="#074E38" stroke-opacity="1.00" stroke-width="0.3"><path d="
M 98.00 401.00 
C 103.91 402.92 110.69 401.62 117.00 402.00
C 117.80 402.13 118.11 403.09 119.00 403.00
C 119.00 402.50 119.19 401.08 119.00 401.00
C 112.04 400.58 104.56 401.99 98.00 400.00
C 98.00 400.00 97.86 400.54 98.00 401.00 Z"/>
</g>
<g fill="None" fill-opacity="0.0" stroke="#202F44" stroke-opacity="1.00" stroke-width="0.3"><path d="
M 117.00 452.00 
C 117.50 452.00 118.00 452.00 118.00 452.00
C 117.34 435.42 119.32 418.14 117.00 402.00
C 110.69 401.62 103.91 402.92 98.00 401.00
C 102.47 405.41 110.95 401.85 117.00 403.00
C 117.00 419.33 117.00 435.67 117.00 452.00 Z"/>
</g>
<g fill="None" fill-opacity="0.0" stroke="#318765" stroke-opacity="1.00" stroke-width="0.3"><path d="
M 119.00 403.00 
C 119.00 419.33 119.00 435.67 119.00 452.00
C 120.67 436.14 120.66 416.93 119.00 401.00
C 119.19 401.08 119.00 402.50 119.00 403.00 Z"/>
</g>
<g fill="None" fill-opacity="0.0" stroke="#45AA7C" stroke-opacity="1.00" stroke-width="0.3"><path d="
M 205.00 452.00 
C 205.00 435.00 205.00 418.00 205.00 401.00
C 203.33 416.86 203.34 436.07 205.00 452.00 Z"/>
</g>
<g fill="None" fill-opacity="0.0" stroke="#BF5A66" stroke-opacity="1.00" stroke-width="0.3"><path d="
M 412.00 402.00 
C 412.00 402.00 412.25 401.26 412.00 401.00
C 406.00 401.00 400.00 401.00 394.00 401.00
C 394.00 401.00 393.26 401.25 393.00 401.00
C 398.34 403.32 405.84 401.34 412.00 402.00 Z"/>
</g>
<g fill="None" fill-opacity="0.0" stroke="#13383B" stroke-opacity="0.98" stroke-width="0.3"><path d="
M 118.00 452.00 
C 118.00 452.50 118.00 453.00 118.00 453.00
C 118.00 453.00 118.75 453.25 119.00 453.00
C 119.00 453.00 119.00 452.50 119.00 452.00
C 119.00 435.67 119.00 419.33 119.00 403.00
C 118.11 403.09 117.80 402.13 117.00 402.00
C 119.32 418.14 117.34 435.42 118.00 452.00 Z"/>
</g>
<g fill="None" fill-opacity="0.0" stroke="#883546" stroke-opacity="1.00" stroke-width="0.3"><path d="
M 276.00 409.00 
C 278.00 407.91 279.74 405.93 281.00 404.00
C 279.00 405.09 277.26 407.07 276.00 409.00 Z"/>
</g>
<g fill="None" fill-opacity="0.0" stroke="#A24D5E" stroke-opacity="1.00" stroke-width="0.3"><path d="
M 273.00 423.00 
C 273.00 423.00 273.99 422.94 274.00 423.00
C 274.00 420.00 274.00 417.00 274.00 414.00
C 271.78 416.02 273.59 420.16 273.00 423.00 Z"/>
</g>
<g fill="None" fill-opacity="0.0" stroke="#8A4053" stroke-opacity="1.00" stroke-width="0.3"><path d="
M 426.00 423.00 
C 427.71 421.74 427.47 417.33 426.00 416.00
C 426.00 418.33 426.00 420.67 426.00 423.00 Z"/>
</g>
<g fill="None" fill-opacity="0.0" stroke="#252546" stroke-opacity="0.27" stroke-width="0.3"><path d="
M 75.00 453.00 
C 89.33 453.00 103.67 453.00 118.00 453.00
C 118.00 453.00 118.00 452.50 118.00 452.00
C 118.00 452.00 117.50 452.00 117.00 452.00
C 103.15 452.66 88.09 450.68 75.00 453.00 Z"/>
</g>
<g fill="#000000" fill-opacity="0.00" stroke="None"><path d="
M 0.00 512.00 
L 512.00 512.00
L 512.00 0.00
L 0.00 0.00
L 0.00 512.00
M 478.00 50.00 
C 478.00 170.33 478.00 290.67 478.00 411.00
C 478.12 449.08 435.11 457.95 404.00 453.00
C 392.81 464.90 382.09 477.70 370.75 489.75 C 362.04 507.68 337.95 507.86 329.08 489.92 C 318.08 477.23 305.68 465.24 296.00 452.00
C 266.83 454.32 236.59 452.35 207.00 453.00
C 206.50 453.00 205.16 453.23 205.00 453.00
C 202.34 469.46 212.98 496.06 192.97 502.97 C 173.19 504.84 151.62 504.36 131.78 503.22 C 111.06 496.34 121.51 469.63 119.00 453.00
C 118.75 453.25 118.00 453.00 118.00 453.00
C 103.67 453.00 89.33 453.00 75.00 453.00
C 53.59 452.21 33.36 432.99 34.00 411.00
C 34.00 299.67 34.00 188.33 34.00 77.00
C 34.00 68.00 34.00 59.00 34.00 50.00
C 33.10 17.52 68.32 2.58 97.00 8.00 C 202.67 8.00 308.33 8.00 414.00 8.00 C 442.86 2.62 478.89 17.00 478.00 50.00 Z"/>
</g>
<g fill="#434377" fill-opacity="0.99" stroke="None"><path d="
M 34.00 50.00 
C 36.31 58.09 34.35 68.16 35.00 77.00
C 182.33 77.00 329.67 77.00 477.00 77.00
C 477.66 68.17 475.67 58.01 478.00 50.00
C 478.89 17.00 442.86 2.62 414.00 8.00 C 308.33 8.00 202.67 8.00 97.00 8.00 C 68.32 2.58 33.10 17.52 34.00 50.00 Z"/>
</g>
<g fill="#594B4C" fill-opacity="1.00" stroke="None"><path d="
M 111.00 39.00 
C 117.01 32.07 129.50 31.77 136.00 38.00
C 131.22 30.43 114.25 30.10 111.00 39.00 Z"/>
</g>
<g fill="#2B5B66" fill-opacity="1.00" stroke="None"><path d="
M 153.00 41.00 
C 153.02 40.91 154.00 41.00 154.00 41.00
C 155.46 31.03 173.52 31.30 178.00 39.00
C 178.21 39.27 178.74 39.88 179.00 40.00
C 179.41 40.19 180.00 40.00 180.00 40.00
C 176.35 29.56 154.82 29.42 153.00 41.00 Z"/>
</g>
<g fill="#F15056" fill-opacity="1.00" stroke="None"><path d="
M 88.00 34.00 
C 76.22 28.59 59.01 42.82 74.33 50.67 C 86.61 56.55 102.52 42.75 88.00 34.00 Z"/>
</g>
<g fill="#EFB83A" fill-opacity="1.00" stroke="None"><path d="
M 111.00 39.00 
C 111.00 39.00 111.05 39.51 111.00 40.00
C 110.06 44.58 112.31 48.85 116.00 51.00
C 116.00 51.00 116.50 51.00 117.00 51.00
C 121.33 51.00 125.67 51.00 130.00 51.00
C 132.44 49.81 135.87 48.13 136.00 45.00
C 136.00 43.33 136.00 41.67 136.00 40.00
C 136.00 39.50 136.15 38.45 136.00 38.00
C 129.50 31.77 117.01 32.07 111.00 39.00 Z"/>
</g>
<g fill="#2EDC78" fill-opacity="1.00" stroke="None"><path d="
M 154.00 41.00 
C 151.32 53.70 174.48 54.82 178.00 46.00
C 178.00 43.67 178.00 41.33 178.00 39.00
C 173.52 31.30 155.46 31.03 154.00 41.00 Z"/>
</g>
<g fill="#2A2A4A" fill-opacity="1.00" stroke="None"><path d="
M 396.00 34.00 
C 353.33 34.00 310.67 34.00 268.00 34.00 C 256.09 28.95 238.91 41.15 253.00 51.00 C 295.67 51.00 338.33 51.00 381.00 51.00 C 393.13 55.55 409.11 44.81 396.00 34.00 Z"/>
</g>
<g fill="#4DB78E" fill-opacity="1.00" stroke="None"><path d="
M 178.00 46.00 
C 179.87 44.86 178.61 41.87 179.00 40.00
C 178.74 39.88 178.21 39.27 178.00 39.00
C 178.00 41.33 178.00 43.67 178.00 46.00 Z"/>
</g>
<g fill="#584944" fill-opacity="1.00" stroke="None"><path d="
M 116.00 51.00 
C 112.31 48.85 110.06 44.58 111.00 40.00
C 108.04 43.48 111.50 50.40 116.00 51.00 Z"/>
</g>
<g fill="#86715A" fill-opacity="1.00" stroke="None"><path d="
M 136.00 45.00 
C 136.05 44.85 137.00 45.00 137.00 45.00
C 136.66 43.44 137.75 40.83 136.00 40.00
C 136.00 41.67 136.00 43.33 136.00 45.00 Z"/>
</g>
<g fill="#286864" fill-opacity="1.00" stroke="None"><path d="
M 178.00 46.00 
C 174.48 54.82 151.32 53.70 154.00 41.00
C 154.00 41.00 153.02 40.91 153.00 41.00
C 150.63 57.04 183.49 56.46 180.00 40.00
C 180.00 40.00 179.41 40.19 179.00 40.00
C 178.61 41.87 179.87 44.86 178.00 46.00 Z"/>
</g>
<g fill="#5B4E4E" fill-opacity="1.00" stroke="None"><path d="
M 130.00 51.00 
C 129.79 51.11 130.00 52.00 130.00 52.00
C 133.27 51.58 137.43 48.78 137.00 45.00
C 137.00 45.00 136.05 44.85 136.00 45.00
C 135.87 48.13 132.44 49.81 130.00 51.00 Z"/>
</g>
<g fill="#43436D" fill-opacity="0.87" stroke="None"><path d="
M 34.00 77.00 
C 34.00 76.96 35.00 77.00 35.00 77.00
C 34.35 68.16 36.31 58.09 34.00 50.00
C 34.00 59.00 34.00 68.00 34.00 77.00 Z"/>
</g>
<g fill="#2D2B45" fill-opacity="0.87" stroke="None"><path d="
M 477.00 77.00 
C 477.67 188.17 475.67 300.65 478.00 411.00
C 478.00 290.67 478.00 170.33 478.00 50.00
C 475.67 58.01 477.66 68.17 477.00 77.00 Z"/>
</g>
<g fill="#705737" fill-opacity="1.00" stroke="None"><path d="
M 130.00 52.00 
C 130.00 52.00 129.79 51.11 130.00 51.00
C 125.67 51.00 121.33 51.00 117.00 51.00
C 120.34 53.29 125.83 51.36 130.00 52.00 Z"/>
</g>
<g fill="#2B2A43" fill-opacity="0.87" stroke="None"><path d="
M 34.00 411.00 
C 36.33 300.57 34.33 188.18 35.00 77.00
C 35.00 77.00 34.00 76.96 34.00 77.00
C 34.00 188.33 34.00 299.67 34.00 411.00 Z"/>
</g>
<g fill="#2A2A49" fill-opacity="1.00" stroke="None"><path d="
M 34.00 411.00 
C 33.36 432.99 53.59 452.21 75.00 453.00
C 88.09 450.68 103.15 452.66 117.00 452.00
C 117.00 435.67 117.00 419.33 117.00 403.00
C 110.95 401.85 102.47 405.41 98.00 401.00
C 97.86 400.54 98.00 400.00 98.00 400.00
C 96.11 400.06 94.71 398.58 93.00 398.00
C 91.07 396.74 89.09 395.00 88.00 393.00
C 87.77 390.49 84.99 388.95 86.00 386.00
C 84.04 384.55 85.44 381.20 85.00 379.00
C 84.17 373.92 88.16 369.71 92.00 367.00
C 92.13 366.20 93.09 365.89 93.00 365.00
C 108.29 346.44 125.65 329.37 140.75 310.75 C 148.35 300.60 162.72 291.02 173.75 301.25 C 189.94 318.41 206.16 336.96 222.25 354.75 C 229.28 364.08 243.53 372.82 240.22 386.22 C 236.99 402.88 219.13 402.01 206.26 403.26 C 206.32 419.71 204.85 436.96 207.00 453.00
C 236.59 452.35 266.83 454.32 296.00 452.00
C 289.04 442.09 276.66 435.04 274.00 423.00
C 273.99 422.94 273.00 423.00 273.00 423.00
C 267.79 419.89 273.52 407.98 279.25 404.25 C 285.65 397.09 296.03 399.33 305.00 399.00
C 305.00 376.33 305.00 353.67 305.00 331.00 C 299.19 308.69 316.45 290.86 339.00 297.00 C 357.02 299.56 387.50 288.31 393.00 312.00
C 392.96 312.50 393.00 313.00 393.00 313.00
C 395.33 338.43 393.33 365.82 394.00 392.00 C 390.55 404.73 406.21 397.68 412.00 401.00
C 412.25 401.26 412.00 402.00 412.00 402.00
C 418.54 402.39 426.07 409.08 426.00 416.00
C 427.47 417.33 427.71 421.74 426.00 423.00
C 423.13 435.18 409.45 442.16 404.00 453.00
C 435.11 457.95 478.12 449.08 478.00 411.00
C 475.67 300.65 477.67 188.17 477.00 77.00
C 329.67 77.00 182.33 77.00 35.00 77.00
C 34.33 188.18 36.33 300.57 34.00 411.00 Z"/>
</g>
<g fill="#8A8A9A" fill-opacity="1.00" stroke="None"><path d="
M 237.00 137.00 
C 245.67 137.00 254.33 137.00 263.00 137.00
C 255.48 135.32 244.59 135.35 237.00 137.00 Z"/>
</g>
<g fill="#8E8B9B" fill-opacity="1.00" stroke="None"><path d="
M 306.00 137.00 
C 324.00 137.00 342.00 137.00 360.00 137.00
C 343.14 135.33 322.93 135.34 306.00 137.00 Z"/>
</g>
<g fill="#FBFBFC" fill-opacity="1.00" stroke="None"><path d="
M 154.00 165.00 
C 154.00 187.00 154.00 209.00 154.00 231.00
C 153.50 242.37 171.79 240.59 171.00 230.00 C 171.00 218.67 171.00 207.33 171.00 196.00
C 179.33 196.00 187.67 196.00 196.00 196.00
C 196.01 207.33 195.99 218.66 196.01 229.99 C 195.19 240.60 213.53 242.36 213.00 231.00
C 213.00 208.67 213.00 186.33 213.00 164.00
C 212.99 128.05 152.52 128.87 154.00 165.00 Z"/>
</g>
<g fill="#FAFAFB" fill-opacity="1.00" stroke="None"><path d="
M 247.00 232.00 
C 247.67 220.17 245.67 207.01 248.00 196.00
C 265.34 199.06 285.61 191.75 289.22 173.22 C 294.03 156.41 280.64 137.21 263.00 137.00
C 254.33 137.00 245.67 137.00 237.00 137.00
C 223.68 142.92 232.60 162.98 230.00 175.00 C 230.00 189.67 230.00 204.33 230.00 219.00 C 223.81 231.39 241.13 248.61 247.00 232.00 Z"/>
</g>
<g fill="#FBFBFC" fill-opacity="1.00" stroke="None"><path d="
M 342.00 222.00 
C 340.34 200.40 340.33 175.53 342.00 154.00
C 349.34 153.14 358.31 156.23 364.25 151.25 C 369.58 147.07 366.81 137.34 360.00 137.00
C 342.00 137.00 324.00 137.00 306.00 137.00
C 298.75 136.85 296.06 148.12 302.26 151.74 C 308.41 155.93 316.79 153.23 324.00 154.00
C 324.00 176.67 324.00 199.33 324.00 222.00
C 314.57 221.83 294.80 218.98 299.70 234.30 C 306.87 243.85 322.35 236.86 333.00 239.00 C 343.75 237.02 358.45 243.70 366.07 234.07 C 371.08 219.04 351.36 221.81 342.00 222.00 Z"/>
</g>
<g fill="#9797A4" fill-opacity="1.00" stroke="None"><path d="
M 248.00 179.00 
C 248.00 170.67 248.00 162.33 248.00 154.00
C 252.33 154.00 256.67 154.00 261.00 154.00
C 256.93 152.48 244.64 150.52 247.00 159.00 C 247.63 165.51 245.72 173.25 248.00 179.00 Z"/>
</g>
<g fill="#2B2A49" fill-opacity="1.00" stroke="None"><path d="
M 196.00 179.00 
C 197.24 168.99 196.57 153.20 183.00 154.00 C 169.85 153.94 170.16 169.12 171.00 179.00
C 179.33 179.00 187.67 179.00 196.00 179.00 Z"/>
</g>
<g fill="#2B2B49" fill-opacity="1.00" stroke="None"><path d="
M 248.00 179.00 
C 256.38 178.87 267.75 181.06 271.69 171.69 C 275.99 164.54 269.36 153.49 261.00 154.00
C 256.67 154.00 252.33 154.00 248.00 154.00
C 248.00 162.33 248.00 170.67 248.00 179.00 Z"/>
</g>
<g fill="#727181" fill-opacity="1.00" stroke="None"><path d="
M 342.00 222.00 
C 342.00 199.33 342.00 176.67 342.00 154.00
C 340.33 175.53 340.34 200.40 342.00 222.00 Z"/>
</g>
<g fill="#717080" fill-opacity="1.00" stroke="None"><path d="
M 213.00 231.00 
C 214.67 209.81 214.66 185.26 213.00 164.00
C 213.00 186.33 213.00 208.67 213.00 231.00 Z"/>
</g>
<g fill="#7D7D90" fill-opacity="1.00" stroke="None"><path d="
M 154.00 231.00 
C 154.00 209.00 154.00 187.00 154.00 165.00
C 152.33 185.86 152.34 210.07 154.00 231.00 Z"/>
</g>
<g fill="#8E8D9C" fill-opacity="1.00" stroke="None"><path d="
M 247.00 232.00 
C 249.33 220.99 247.33 207.83 248.00 196.00
C 245.67 207.01 247.67 220.17 247.00 232.00 Z"/>
</g>
<g fill="#15403E" fill-opacity="1.00" stroke="None"><path d="
M 93.00 365.00 
C 96.45 362.95 98.58 359.00 102.00 357.00
C 103.57 354.72 105.67 352.43 108.00 351.00
C 111.39 344.47 118.65 340.50 122.00 334.00
C 123.57 331.72 125.67 329.43 128.00 328.00
C 128.20 327.60 128.00 327.00 128.00 327.00
C 130.21 324.04 133.02 321.10 136.00 319.00
C 138.05 315.55 142.00 313.42 144.00 310.00
C 146.54 306.70 149.69 303.44 153.00 301.00
C 158.99 297.52 167.34 298.26 173.00 302.00
C 174.93 303.26 176.91 305.00 178.00 307.00
C 181.50 312.04 186.09 316.28 190.00 321.00
C 195.54 325.18 199.87 330.69 204.00 336.00
C 204.81 338.04 207.27 338.97 208.00 341.00
C 210.96 343.21 213.90 346.02 216.00 349.00
C 216.22 352.54 220.74 353.93 222.00 357.00
C 224.28 358.57 226.57 360.67 228.00 363.00
C 231.75 368.11 237.96 372.30 238.00 379.00
C 239.47 380.33 239.71 384.74 238.00 386.00
C 238.54 388.68 237.08 390.78 236.00 393.00
C 234.74 394.93 233.00 396.91 231.00 398.00
C 223.35 402.60 213.78 400.55 205.00 401.00
C 205.00 418.00 205.00 435.00 205.00 452.00
C 205.00 452.50 205.00 453.00 205.00 453.00
C 205.16 453.23 206.50 453.00 207.00 453.00
C 204.85 436.96 206.32 419.71 206.26 403.26 C 219.13 402.01 236.99 402.88 240.22 386.22 C 243.53 372.82 229.28 364.08 222.25 354.75 C 206.16 336.96 189.94 318.41 173.75 301.25 C 162.72 291.02 148.35 300.60 140.75 310.75 C 125.65 329.37 108.29 346.44 93.00 365.00 Z"/>
</g>
<g fill="#45223B" fill-opacity="1.00" stroke="None"><path d="
M 273.00 423.00 
C 273.59 420.16 271.78 416.02 274.00 414.00
C 274.71 412.32 276.01 410.92 276.00 409.00
C 277.26 407.07 279.00 405.09 281.00 404.00
C 283.54 404.00 285.26 401.40 288.00 402.00
C 293.42 399.72 300.82 401.63 307.00 401.00
C 307.67 371.50 305.67 340.68 308.00 312.00
C 308.12 306.55 313.61 302.35 318.00 300.00
C 336.30 296.04 359.24 297.97 378.00 299.00
C 378.74 298.82 379.91 299.05 380.00 300.00
C 381.56 299.59 382.69 300.46 384.00 301.00
C 386.28 302.57 388.57 304.67 390.00 307.00
C 390.71 308.68 392.01 310.08 392.00 312.00
C 392.04 312.14 393.00 312.00 393.00 312.00
C 387.50 288.31 357.02 299.56 339.00 297.00 C 316.45 290.86 299.19 308.69 305.00 331.00 C 305.00 353.67 305.00 376.33 305.00 399.00
C 296.03 399.33 285.65 397.09 279.25 404.25 C 273.52 407.98 267.79 419.89 273.00 423.00 Z"/>
</g>
<g fill="#812E3F" fill-opacity="1.00" stroke="None"><path d="
M 318.00 300.00 
C 318.47 299.88 319.50 300.00 320.00 300.00
C 338.43 297.67 358.82 299.66 378.00 299.00
C 359.24 297.97 336.30 296.04 318.00 300.00 Z"/>
</g>
<g fill="#26E472" fill-opacity="1.00" stroke="None"><path d="
M 153.00 301.00 
C 150.46 304.30 147.31 307.56 144.00 310.00
C 142.00 313.42 138.05 315.55 136.00 319.00
C 133.79 321.96 130.98 324.90 128.00 327.00
C 128.00 327.00 128.20 327.60 128.00 328.00
C 126.43 330.28 124.33 332.57 122.00 334.00
C 118.65 340.50 111.39 344.47 108.00 351.00
C 106.43 353.28 104.33 355.57 102.00 357.00
C 101.70 358.25 100.17 358.71 100.00 360.00
C 98.43 362.28 96.33 364.57 94.00 366.00
C 92.43 368.28 90.33 370.57 88.00 372.00
C 88.00 374.54 85.40 376.26 86.00 379.00
C 86.00 381.33 86.00 383.67 86.00 386.00
C 84.99 388.95 87.77 390.49 88.00 393.00
C 89.93 394.26 91.91 396.00 93.00 398.00
C 94.71 398.58 96.11 400.06 98.00 400.00
C 104.56 401.99 112.04 400.58 119.00 401.00
C 120.66 416.93 120.67 436.14 119.00 452.00
C 119.00 452.50 119.00 453.00 119.00 453.00
C 121.51 469.63 111.06 496.34 131.78 503.22 C 151.62 504.36 173.19 504.84 192.97 502.97 C 212.98 496.06 202.34 469.46 205.00 453.00
C 205.00 453.00 205.00 452.50 205.00 452.00
C 203.34 436.07 203.33 416.86 205.00 401.00
C 213.78 400.55 223.35 402.60 231.00 398.00
C 232.26 396.07 234.00 394.09 236.00 393.00
C 237.08 390.78 238.54 388.68 238.00 386.00
C 238.00 383.67 238.00 381.33 238.00 379.00
C 237.96 372.30 231.75 368.11 228.00 363.00
C 225.72 361.43 223.43 359.33 222.00 357.00
C 220.74 353.93 216.22 352.54 216.00 349.00
C 213.04 346.79 210.10 343.98 208.00 341.00
C 207.27 338.97 204.81 338.04 204.00 336.00
C 198.60 331.75 194.78 325.88 190.00 321.00
C 186.09 316.28 181.50 312.04 178.00 307.00
C 176.07 305.74 174.09 304.00 173.00 302.00
C 167.34 298.26 158.99 297.52 153.00 301.00 Z"/>
</g>
<g fill="#DA5B64" fill-opacity="1.00" stroke="None"><path d="
M 320.00 300.00 
C 340.00 300.00 360.00 300.00 380.00 300.00
C 379.91 299.05 378.74 298.82 378.00 299.00
C 358.82 299.66 338.43 297.67 320.00 300.00 Z"/>
</g>
<g fill="#FE4D4E" fill-opacity="1.00" stroke="None"><path d="
M 308.00 312.00 
C 308.00 339.33 308.00 366.67 308.00 394.00 C 311.03 406.64 295.19 400.68 288.00 402.00
C 285.26 401.40 283.54 404.00 281.00 404.00
C 279.74 405.93 278.00 407.91 276.00 409.00
C 276.01 410.92 274.71 412.32 274.00 414.00
C 274.00 417.00 274.00 420.00 274.00 423.00
C 276.66 435.04 289.04 442.09 296.00 452.00
C 305.68 465.24 318.08 477.23 329.08 489.92 C 337.95 507.86 362.04 507.68 370.75 489.75 C 382.09 477.70 392.81 464.90 404.00 453.00
C 409.45 442.16 423.13 435.18 426.00 423.00
C 426.00 420.67 426.00 418.33 426.00 416.00
C 426.07 409.08 418.54 402.39 412.00 402.00
C 405.84 401.34 398.34 403.32 393.00 401.00
C 390.67 372.24 392.66 341.51 392.00 312.00
C 392.01 310.08 390.71 308.68 390.00 307.00
C 387.72 305.43 385.43 303.33 384.00 301.00
C 382.69 300.46 381.56 299.59 380.00 300.00
C 360.00 300.00 340.00 300.00 320.00 300.00
C 319.50 300.00 318.47 299.88 318.00 300.00
C 313.61 302.35 308.12 306.55 308.00 312.00 Z"/>
</g>
<g fill="#39A573" fill-opacity="1.00" stroke="None"><path d="
M 144.00 310.00 
C 147.31 307.56 150.46 304.30 153.00 301.00
C 149.69 303.44 146.54 306.70 144.00 310.00 Z"/>
</g>
<g fill="#C35662" fill-opacity="1.00" stroke="None"><path d="
M 390.00 307.00 
C 388.57 304.67 386.28 302.57 384.00 301.00
C 385.43 303.33 387.72 305.43 390.00 307.00 Z"/>
</g>
<g fill="#166848" fill-opacity="1.00" stroke="None"><path d="
M 178.00 307.00 
C 176.91 305.00 174.93 303.26 173.00 302.00
C 174.09 304.00 176.07 305.74 178.00 307.00 Z"/>
</g>
<g fill="#B25362" fill-opacity="1.00" stroke="None"><path d="
M 288.00 402.00 
C 295.19 400.68 311.03 406.64 308.00 394.00 C 308.00 366.67 308.00 339.33 308.00 312.00
C 305.67 340.68 307.67 371.50 307.00 401.00
C 300.82 401.63 293.42 399.72 288.00 402.00 Z"/>
</g>
<g fill="#8D4053" fill-opacity="1.00" stroke="None"><path d="
M 393.00 401.00 
C 393.26 401.25 394.00 401.00 394.00 401.00
C 391.67 372.17 393.66 342.25 393.00 313.00
C 393.00 313.00 392.96 312.50 393.00 312.00
C 393.00 312.00 392.04 312.14 392.00 312.00
C 392.66 341.51 390.67 372.24 393.00 401.00 Z"/>
</g>
<g fill="#441F39" fill-opacity="1.00" stroke="None"><path d="
M 394.00 401.00 
C 400.00 401.00 406.00 401.00 412.00 401.00
C 406.21 397.68 390.55 404.73 394.00 392.00 C 393.33 365.82 395.33 338.43 393.00 313.00
C 393.66 342.25 391.67 372.17 394.00 401.00 Z"/>
</g>
<g fill="#135C44" fill-opacity="1.00" stroke="None"><path d="
M 128.00 327.00 
C 130.98 324.90 133.79 321.96 136.00 319.00
C 133.02 321.10 130.21 324.04 128.00 327.00 Z"/>
</g>
<g fill="#186549" fill-opacity="1.00" stroke="None"><path d="
M 204.00 336.00 
C 199.87 330.69 195.54 325.18 190.00 321.00
C 194.78 325.88 198.60 331.75 204.00 336.00 Z"/>
</g>
<g fill="#1A694C" fill-opacity="1.00" stroke="None"><path d="
M 122.00 334.00 
C 124.33 332.57 126.43 330.28 128.00 328.00
C 125.67 329.43 123.57 331.72 122.00 334.00 Z"/>
</g>
<g fill="#125B42" fill-opacity="1.00" stroke="None"><path d="
M 216.00 349.00 
C 213.90 346.02 210.96 343.21 208.00 341.00
C 210.10 343.98 213.04 346.79 216.00 349.00 Z"/>
</g>
<g fill="#3DAB77" fill-opacity="1.00" stroke="None"><path d="
M 102.00 357.00 
C 104.33 355.57 106.43 353.28 108.00 351.00
C 105.67 352.43 103.57 354.72 102.00 357.00 Z"/>
</g>
<g fill="#135D45" fill-opacity="1.00" stroke="None"><path d="
M 93.00 365.00 
C 93.09 365.89 92.13 366.20 92.00 367.00
C 91.19 369.04 88.73 369.97 88.00 372.00
C 90.33 370.57 92.43 368.28 94.00 366.00
C 95.57 363.72 97.67 361.43 100.00 360.00
C 100.17 358.71 101.70 358.25 102.00 357.00
C 98.58 359.00 96.45 362.95 93.00 365.00 Z"/>
</g>
<g fill="#29865E" fill-opacity="1.00" stroke="None"><path d="
M 228.00 363.00 
C 226.57 360.67 224.28 358.57 222.00 357.00
C 223.43 359.33 225.72 361.43 228.00 363.00 Z"/>
</g>
<g fill="#3CB277" fill-opacity="1.00" stroke="None"><path d="
M 94.00 366.00 
C 96.33 364.57 98.43 362.28 100.00 360.00
C 97.67 361.43 95.57 363.72 94.00 366.00 Z"/>
</g>
<g fill="#163D3F" fill-opacity="1.00" stroke="None"><path d="
M 85.00 379.00 
C 85.02 378.91 86.00 379.00 86.00 379.00
C 85.40 376.26 88.00 374.54 88.00 372.00
C 88.73 369.97 91.19 369.04 92.00 367.00
C 88.16 369.71 84.17 373.92 85.00 379.00 Z"/>
</g>
<g fill="#338668" fill-opacity="1.00" stroke="None"><path d="
M 86.00 386.00 
C 86.00 383.67 86.00 381.33 86.00 379.00
C 86.00 379.00 85.02 378.91 85.00 379.00
C 85.44 381.20 84.04 384.55 86.00 386.00 Z"/>
</g>
<g fill="#46AA7D" fill-opacity="1.00" stroke="None"><path d="
M 238.00 386.00 
C 239.71 384.74 239.47 380.33 238.00 379.00
C 238.00 381.33 238.00 383.67 238.00 386.00 Z"/>
</g>
<g fill="#176849" fill-opacity="1.00" stroke="None"><path d="
M 93.00 398.00 
C 91.91 396.00 89.93 394.26 88.00 393.00
C 89.09 395.00 91.07 396.74 93.00 398.00 Z"/>
</g>
<g fill="#2A8860" fill-opacity="1.00" stroke="None"><path d="
M 231.00 398.00 
C 233.00 396.91 234.74 394.93 236.00 393.00
C 234.00 394.09 232.26 396.07 231.00 398.00 Z"/>
</g>
<g fill="#074E38" fill-opacity="1.00" stroke="None"><path d="
M 98.00 401.00 
C 103.91 402.92 110.69 401.62 117.00 402.00
C 117.80 402.13 118.11 403.09 119.00 403.00
C 119.00 402.50 119.19 401.08 119.00 401.00
C 112.04 400.58 104.56 401.99 98.00 400.00
C 98.00 400.00 97.86 400.54 98.00 401.00 Z"/>
</g>
<g fill="#202F44" fill-opacity="1.00" stroke="None"><path d="
M 117.00 452.00 
C 117.50 452.00 118.00 452.00 118.00 452.00
C 117.34 435.42 119.32 418.14 117.00 402.00
C 110.69 401.62 103.91 402.92 98.00 401.00
C 102.47 405.41 110.95 401.85 117.00 403.00
C 117.00 419.33 117.00 435.67 117.00 452.00 Z"/>
</g>
<g fill="#318765" fill-opacity="1.00" stroke="None"><path d="
M 119.00 403.00 
C 119.00 419.33 119.00 435.67 119.00 452.00
C 120.67 436.14 120.66 416.93 119.00 401.00
C 119.19 401.08 119.00 402.50 119.00 403.00 Z"/>
</g>
<g fill="#45AA7C" fill-opacity="1.00" stroke="None"><path d="
M 205.00 452.00 
C 205.00 435.00 205.00 418.00 205.00 401.00
C 203.33 416.86 203.34 436.07 205.00 452.00 Z"/>
</g>
<g fill="#BF5A66" fill-opacity="1.00" stroke="None"><path d="
M 412.00 402.00 
C 412.00 402.00 412.25 401.26 412.00 401.00
C 406.00 401.00 400.00 401.00 394.00 401.00
C 394.00 401.00 393.26 401.25 393.00 401.00
C 398.34 403.32 405.84 401.34 412.00 402.00 Z"/>
</g>
<g fill="#13383B" fill-opacity="0.98" stroke="None"><path d="
M 118.00 452.00 
C 118.00 452.50 118.00 453.00 118.00 453.00
C 118.00 453.00 118.75 453.25 119.00 453.00
C 119.00 453.00 119.00 452.50 119.00 452.00
C 119.00 435.67 119.00 419.33 119.00 403.00
C 118.11 403.09 117.80 402.13 117.00 402.00
C 119.32 418.14 117.34 435.42 118.00 452.00 Z"/>
</g>
<g fill="#883546" fill-opacity="1.00" stroke="None"><path d="
M 276.00 409.00 
C 278.00 407.91 279.74 405.93 281.00 404.00
C 279.00 405.09 277.26 407.07 276.00 409.00 Z"/>
</g>
<g fill="#A24D5E" fill-opacity="1.00" stroke="None"><path d="
M 273.00 423.00 
C 273.00 423.00 273.99 422.94 274.00 423.00
C 274.00 420.00 274.00 417.00 274.00 414.00
C 271.78 416.02 273.59 420.16 273.00 423.00 Z"/>
</g>
<g fill="#8A4053" fill-opacity="1.00" stroke="None"><path d="
M 426.00 423.00 
C 427.71 421.74 427.47 417.33 426.00 416.00
C 426.00 418.33 426.00 420.67 426.00 423.00 Z"/>
</g>
<g fill="#252546" fill-opacity="0.27" stroke="None"><path d="
M 75.00 453.00 
C 89.33 453.00 103.67 453.00 118.00 453.00
C 118.00 453.00 118.00 452.50 118.00 452.00
C 118.00 452.00 117.50 452.00 117.00 452.00
C 103.15 452.66 88.09 450.68 75.00 453.00 Z"/>
</g>
</svg>